<svg width="11" height="11" viewBox="0 0 11 11" fill="none" xmlns="http://www.w3.org/2000/svg">
<path d="M3.32908 10.0873L8.75 4.66642L6.17517 2.09158L0.75425 7.5125C0.679621 7.58722 0.626607 7.68075 0.600833 7.78317L0 10.8416L3.05783 10.2408C3.1605 10.2151 3.25442 10.162 3.32908 10.0873ZM10.5 2.91642C10.7187 2.69763 10.8416 2.40094 10.8416 2.09158C10.8416 1.78223 10.7187 1.48553 10.5 1.26675L9.57483 0.341584C9.35605 0.122868 9.05936 0 8.75 0C8.44064 0 8.14395 0.122868 7.92517 0.341584L7 1.26675L9.57483 3.84158L10.5 2.91642Z" fill="white"/>
</svg>
