<svg width="14" height="18" viewBox="0 0 14 18" fill="none" xmlns="http://www.w3.org/2000/svg">
<path d="M6.70833 17.2534C5.4979 16.2209 4.37594 15.089 3.35417 13.8695C1.82083 12.0381 8.42273e-07 9.3107 8.42273e-07 6.7117C-0.000664144 5.38437 0.392446 4.08667 1.12958 2.98285C1.86672 1.87902 2.91474 1.01868 4.14102 0.510703C5.3673 0.0027281 6.71672 -0.130046 8.01849 0.129185C9.32026 0.388416 10.5159 1.028 11.454 1.96699C12.0786 2.58881 12.5737 3.32834 12.9106 4.14276C13.2475 4.95719 13.4195 5.83035 13.4167 6.7117C13.4167 9.3107 11.5958 12.0381 10.0625 13.8695C9.04073 15.089 7.91876 16.2209 6.70833 17.2534ZM6.70833 3.8367C5.94584 3.8367 5.21457 4.1396 4.6754 4.67877C4.13623 5.21793 3.83333 5.9492 3.83333 6.7117C3.83333 7.47419 4.13623 8.20546 4.6754 8.74463C5.21457 9.2838 5.94584 9.5867 6.70833 9.5867C7.47083 9.5867 8.2021 9.2838 8.74127 8.74463C9.28043 8.20546 9.58333 7.47419 9.58333 6.7117C9.58333 5.9492 9.28043 5.21793 8.74127 4.67877C8.2021 4.1396 7.47083 3.8367 6.70833 3.8367Z" fill="#D7B56D"/>
</svg>
