<svg width="348" height="3" viewBox="0 0 348 3" fill="none" xmlns="http://www.w3.org/2000/svg">
<path d="M1.09265 2.51309C0.874119 2.51309 0.437073 2.29457 0.218543 2.07604C0.218543 2.07604 0 1.8575 0 1.63897C0 1.42044 0 1.42045 0 1.20192C0 0.983388 0 0.983378 0 0.764848C0 0.546318 0.218543 0.546325 0.218543 0.327795C0.655603 -0.109265 1.31122 -0.109265 1.74828 0.327795C1.74828 0.327795 1.96682 0.546318 1.96682 0.764848C1.96682 0.983378 1.96682 0.983388 1.96682 1.20192C1.96682 1.42045 1.96682 1.42044 1.96682 1.63897C1.96682 1.8575 1.74828 1.85751 1.74828 2.07604C1.52975 2.07604 1.52972 2.29457 1.31119 2.29457C1.31119 2.5131 1.09265 2.51309 1.09265 2.51309Z" fill="white" fill-opacity="0.3"/>
<path d="M328.669 1.42041C328.669 0.764818 329.106 0.327759 329.762 0.327759C330.417 0.327759 330.854 0.764818 330.854 1.42041C330.854 2.076 330.417 2.51306 329.762 2.51306C329.106 2.51306 328.669 2.076 328.669 1.42041ZM311.405 1.42041C311.405 0.764818 311.842 0.327759 312.498 0.327759C313.153 0.327759 313.59 0.764818 313.59 1.42041C313.59 2.076 313.153 2.51306 312.498 2.51306C311.842 2.51306 311.405 2.076 311.405 1.42041ZM293.923 1.42041C293.923 0.764818 294.36 0.327759 295.015 0.327759C295.671 0.327759 296.108 0.764818 296.108 1.42041C296.108 2.076 295.671 2.51306 295.015 2.51306C294.578 2.51306 293.923 2.076 293.923 1.42041ZM276.659 1.42041C276.659 0.764818 277.096 0.327759 277.751 0.327759C278.407 0.327759 278.844 0.764818 278.844 1.42041C278.844 2.076 278.407 2.51306 277.751 2.51306C277.314 2.51306 276.659 2.076 276.659 1.42041ZM259.395 1.42041C259.395 0.764818 259.832 0.327759 260.488 0.327759C261.143 0.327759 261.58 0.764818 261.58 1.42041C261.58 2.076 261.143 2.51306 260.488 2.51306C259.832 2.51306 259.395 2.076 259.395 1.42041ZM242.131 1.42041C242.131 0.764818 242.568 0.327759 243.224 0.327759C243.879 0.327759 244.316 0.764818 244.316 1.42041C244.316 2.076 243.879 2.51306 243.224 2.51306C242.568 2.51306 242.131 2.076 242.131 1.42041ZM224.867 1.42041C224.867 0.764818 225.304 0.327759 225.96 0.327759C226.615 0.327759 227.053 0.764818 227.053 1.42041C227.053 2.076 226.615 2.51306 225.96 2.51306C225.304 2.51306 224.867 2.076 224.867 1.42041ZM207.603 1.42041C207.603 0.764818 208.04 0.327759 208.696 0.327759C209.352 0.327759 209.789 0.764818 209.789 1.42041C209.789 2.076 209.352 2.51306 208.696 2.51306C208.04 2.51306 207.603 2.076 207.603 1.42041ZM190.121 1.42041C190.121 0.764818 190.558 0.327759 191.214 0.327759C191.869 0.327759 192.306 0.764818 192.306 1.42041C192.306 2.076 191.869 2.51306 191.214 2.51306C190.777 2.51306 190.121 2.076 190.121 1.42041ZM172.857 1.42041C172.857 0.764818 173.294 0.327759 173.95 0.327759C174.605 0.327759 175.042 0.764818 175.042 1.42041C175.042 2.076 174.605 2.51306 173.95 2.51306C173.513 2.51306 172.857 2.076 172.857 1.42041ZM155.593 1.42041C155.593 0.764818 156.03 0.327759 156.686 0.327759C157.342 0.327759 157.779 0.764818 157.779 1.42041C157.779 2.076 157.342 2.51306 156.686 2.51306C156.03 2.51306 155.593 2.076 155.593 1.42041ZM138.329 1.42041C138.329 0.764818 138.766 0.327759 139.422 0.327759C140.078 0.327759 140.515 0.764818 140.515 1.42041C140.515 2.076 140.078 2.51306 139.422 2.51306C138.766 2.51306 138.329 2.076 138.329 1.42041ZM121.066 1.42041C121.066 0.764818 121.503 0.327759 122.158 0.327759C122.814 0.327759 123.251 0.764818 123.251 1.42041C123.251 2.076 122.814 2.51306 122.158 2.51306C121.503 2.51306 121.066 2.076 121.066 1.42041ZM103.802 1.42041C103.802 0.764818 104.239 0.327759 104.894 0.327759C105.55 0.327759 105.987 0.764818 105.987 1.42041C105.987 2.076 105.55 2.51306 104.894 2.51306C104.239 2.51306 103.802 2.076 103.802 1.42041ZM86.5378 1.42041C86.5378 0.764818 86.9749 0.327759 87.6305 0.327759C88.2861 0.327759 88.7231 0.764818 88.7231 1.42041C88.7231 2.076 88.2861 2.51306 87.6305 2.51306C86.9749 2.51306 86.5378 2.076 86.5378 1.42041ZM69.0554 1.42041C69.0554 0.764818 69.4925 0.327759 70.1481 0.327759C70.8037 0.327759 71.2407 0.764818 71.2407 1.42041C71.2407 2.076 70.8037 2.51306 70.1481 2.51306C69.711 2.51306 69.0554 2.076 69.0554 1.42041ZM51.7916 1.42041C51.7916 0.764818 52.2287 0.327759 52.8843 0.327759C53.5398 0.327759 53.9769 0.764818 53.9769 1.42041C53.9769 2.076 53.5398 2.51306 52.8843 2.51306C52.2287 2.51306 51.7916 2.076 51.7916 1.42041ZM34.5278 1.42041C34.5278 0.764818 34.9648 0.327759 35.6204 0.327759C36.276 0.327759 36.7131 0.764818 36.7131 1.42041C36.7131 2.076 36.276 2.51306 35.6204 2.51306C34.9648 2.51306 34.5278 2.076 34.5278 1.42041ZM17.2639 1.42041C17.2639 0.764818 17.701 0.327759 18.3566 0.327759C19.0122 0.327759 19.4492 0.764818 19.4492 1.42041C19.4492 2.076 19.0122 2.51306 18.3566 2.51306C17.701 2.51306 17.2639 2.076 17.2639 1.42041Z" fill="white" fill-opacity="0.3"/>
<path d="M347.025 2.5131C346.807 2.5131 346.807 2.5131 346.588 2.5131C346.37 2.5131 346.37 2.29457 346.151 2.29457C345.933 2.07604 345.933 1.85751 345.933 1.63898C345.933 1.42045 345.933 1.42046 345.933 1.20193C345.933 0.983396 346.151 0.983386 346.151 0.764856C346.37 0.764856 346.37 0.546329 346.588 0.546329C347.025 0.327799 347.462 0.546326 347.681 0.764856C347.681 0.764856 347.9 0.983396 347.9 1.20193C347.9 1.42046 347.9 1.42045 347.9 1.63898C347.9 1.85751 347.9 2.29457 347.681 2.29457C347.462 2.5131 347.244 2.5131 347.025 2.5131Z" fill="white" fill-opacity="0.3"/>
</svg>
