<svg width="735" height="334" viewBox="0 0 735 334" fill="none" xmlns="http://www.w3.org/2000/svg">
<path d="M1.09266 333.04C0.874135 333.04 0.437088 333.04 0.218558 332.821C2.85935e-05 332.602 1.52588e-05 332.384 1.52588e-05 331.947C1.52588e-05 331.728 1.52588e-05 331.728 1.52588e-05 331.51C1.52588e-05 331.291 0.218558 331.291 0.218558 331.073C0.218558 331.073 0.437082 330.854 0.655611 330.854C0.874141 330.854 1.31119 330.854 1.52972 330.854C1.74825 330.854 1.74824 331.073 1.96677 331.073C1.96677 331.073 2.18531 331.291 2.18531 331.51C2.18531 331.728 2.18531 331.728 2.18531 331.947C2.18531 332.165 2.1853 332.602 1.96677 332.821C1.96677 332.821 1.74825 333.04 1.52972 333.04C1.31119 333.04 1.09266 333.04 1.09266 333.04Z" fill="white" fill-opacity="0.3"/>
<path d="M2.40385 315.776C1.74826 315.776 1.31118 315.12 1.52971 314.464C1.52971 313.809 2.18531 313.59 2.8409 313.59C3.49649 313.59 3.93353 314.246 3.71501 314.901C3.49648 315.339 3.05944 315.776 2.40385 315.776ZM6.77444 298.949C6.11885 298.73 5.90032 298.075 6.11885 297.638C6.33738 296.982 6.99295 296.763 7.43001 296.982C8.0856 297.201 8.30413 297.856 8.0856 298.293C7.86707 298.73 7.43001 298.949 6.99295 298.949C6.99295 299.167 6.99297 298.949 6.77444 298.949ZM13.9859 283.215C13.5488 282.996 13.3303 282.122 13.5488 281.685C13.7674 281.248 14.423 281.029 15.0786 281.248C15.5156 281.466 15.7342 282.122 15.5156 282.778C15.2971 283.215 14.86 283.433 14.6415 283.433C14.423 283.433 14.2044 283.433 13.9859 283.215ZM23.6012 268.792C23.1642 268.355 22.9456 267.699 23.3827 267.262C23.8198 266.825 24.4753 266.606 24.9124 267.043C25.3495 267.48 25.568 268.136 25.1309 268.573C24.9124 268.792 24.6939 269.01 24.2568 269.01C24.0383 269.01 23.8198 269.01 23.6012 268.792ZM35.1833 255.898C34.7463 255.461 34.7463 254.806 35.1833 254.369C35.6204 253.932 36.2759 253.932 36.713 254.369C37.1501 254.806 37.1501 255.461 36.713 255.898C36.4945 256.117 36.276 256.117 36.0574 256.117C35.6204 256.335 35.4019 256.117 35.1833 255.898ZM215.47 245.409C215.47 244.753 215.907 244.316 216.563 244.316C217.219 244.316 217.656 244.753 217.656 245.409C217.656 246.065 217.219 246.502 216.563 246.502C216.126 246.502 215.689 246.065 215.47 245.409ZM199.299 245.846C198.644 245.846 198.207 245.19 198.425 244.753C198.425 244.098 199.081 243.661 199.736 243.879C200.392 243.879 200.829 244.535 200.61 245.19C200.392 245.627 199.955 246.065 199.299 245.846C199.299 246.065 199.299 245.846 199.299 245.846ZM48.5137 244.972C48.2951 244.535 48.2951 243.879 48.7321 243.442C49.1692 243.005 49.8248 243.224 50.2619 243.661C50.4804 244.098 50.4804 244.753 50.0433 245.19C49.8248 245.409 49.6063 245.409 49.3878 245.409C49.1692 245.409 48.7322 245.409 48.5137 244.972ZM232.516 242.568C232.297 241.913 232.734 241.475 233.171 241.257C233.827 241.038 234.264 241.475 234.482 241.912C234.701 242.568 234.264 243.005 233.827 243.224C233.608 243.224 233.608 243.224 233.39 243.224C233.171 243.442 232.734 243.005 232.516 242.568ZM182.035 242.787C181.38 242.568 181.161 242.131 181.161 241.475C181.38 240.82 181.817 240.601 182.472 240.601C183.128 240.82 183.347 241.257 183.347 241.912C183.128 242.35 182.691 242.787 182.254 242.787H182.035ZM165.209 238.416C164.553 238.198 164.334 237.542 164.553 237.105C164.771 236.449 165.427 236.231 165.864 236.449C166.52 236.668 166.738 237.105 166.52 237.76C166.301 238.197 165.864 238.635 165.427 238.635C165.427 238.416 165.427 238.416 165.209 238.416ZM63.5922 236.231C63.3737 235.575 63.5922 235.138 64.0292 234.701C64.6848 234.482 65.1219 234.701 65.559 235.138C65.7775 235.575 65.5589 236.231 65.1219 236.668C64.9033 236.668 64.9034 236.668 64.6849 236.668C64.0293 236.886 63.5922 236.668 63.5922 236.231ZM248.468 235.794C248.25 235.357 248.25 234.482 248.905 234.264C249.343 234.045 249.998 234.045 250.435 234.701C250.654 235.138 250.654 236.012 249.998 236.231C249.78 236.231 249.561 236.449 249.343 236.449C249.124 236.231 248.687 236.231 248.468 235.794ZM148.6 233.608C147.945 233.39 147.726 232.953 147.726 232.297C147.945 231.642 148.6 231.423 149.037 231.642C149.693 231.86 149.911 232.297 149.693 232.953C149.474 233.39 149.037 233.827 148.6 233.827C148.819 233.608 148.6 233.608 148.6 233.608ZM79.5449 229.675C79.3263 229.019 79.7634 228.582 80.2005 228.364C80.8561 228.145 81.2931 228.582 81.5116 229.019C81.7301 229.675 81.2931 230.112 80.856 230.33H80.6375C80.2004 230.549 79.7634 230.33 79.5449 229.675ZM131.773 229.456C131.118 229.238 130.899 228.801 130.899 228.145C131.118 227.49 131.555 227.271 132.211 227.271C132.866 227.49 133.085 227.927 133.085 228.582C133.085 229.019 132.648 229.456 131.773 229.456C131.992 229.456 131.992 229.456 131.773 229.456ZM96.5902 226.178C96.5902 225.523 97.0273 225.086 97.6829 225.086C98.3385 225.086 98.7755 225.523 98.7755 225.96C98.7755 226.615 98.3384 227.052 97.9014 227.271C97.9014 227.271 97.9014 227.271 97.6829 227.271C97.0273 227.271 96.5902 226.834 96.5902 226.178ZM114.728 226.834C114.073 226.834 113.636 226.178 113.636 225.741C113.636 225.086 114.291 224.649 114.728 224.649C115.384 224.649 115.821 225.304 115.821 225.741C116.039 226.397 115.384 226.834 114.728 226.834C114.947 226.834 114.947 226.834 114.728 226.834ZM262.673 225.741C262.236 225.304 262.454 224.649 262.891 224.212C263.328 223.775 263.984 223.774 264.421 224.43C264.858 224.867 264.858 225.523 264.421 225.96C264.203 226.178 263.984 226.178 263.766 226.178C263.11 226.178 262.891 226.178 262.673 225.741ZM275.129 213.722C274.692 213.285 274.692 212.63 275.129 212.192C275.566 211.755 276.222 211.755 276.659 212.192C277.096 212.63 277.096 213.285 276.659 213.722C276.44 213.941 276.222 214.159 275.785 214.159C275.566 213.941 275.348 213.941 275.129 213.722ZM286.056 200.392C285.618 199.955 285.4 199.299 285.837 198.862C286.274 198.425 286.93 198.207 287.367 198.644C287.804 199.081 288.022 199.736 287.585 200.173C287.367 200.392 286.93 200.61 286.711 200.61C286.493 200.61 286.274 200.61 286.056 200.392ZM296.326 186.187C295.889 185.75 295.671 185.095 296.108 184.658C296.545 184.221 297.201 184.002 297.638 184.439C298.075 184.876 298.293 185.532 297.856 185.969C297.638 186.187 297.201 186.406 296.982 186.406C296.545 186.406 296.326 186.406 296.326 186.187ZM305.942 171.983C305.505 171.546 305.286 170.89 305.723 170.453C305.942 170.016 306.816 169.798 307.253 170.235C307.69 170.453 307.909 171.327 307.472 171.764C307.253 172.202 306.816 172.201 306.597 172.201C306.16 171.983 305.942 171.983 305.942 171.983ZM315.557 157.56C315.12 157.123 314.901 156.467 315.339 156.03C315.776 155.593 316.431 155.375 316.868 155.812C317.305 156.249 317.524 156.904 317.087 157.341C316.868 157.56 316.431 157.778 316.213 157.778C315.994 157.778 315.776 157.56 315.557 157.56ZM507.426 155.812C507.426 155.156 507.863 154.719 508.519 154.719C509.175 154.719 509.612 155.156 509.612 155.812C509.612 156.467 509.175 156.904 508.519 156.904C508.082 156.904 507.426 156.467 507.426 155.812ZM491.255 154.719C490.599 154.501 490.381 154.063 490.6 153.408C490.818 152.752 491.255 152.534 491.911 152.534C492.566 152.752 492.785 153.408 492.785 153.845C492.566 154.282 492.129 154.719 491.692 154.719C491.255 154.719 491.255 154.719 491.255 154.719ZM524.69 153.408C524.472 152.752 524.909 152.315 525.346 152.097C526.001 151.878 526.438 152.315 526.657 152.752C526.875 153.408 526.438 153.845 526.001 154.064H525.783C525.127 154.064 524.69 153.845 524.69 153.408ZM474.865 147.945C474.428 147.726 474.21 147.071 474.428 146.415C474.647 145.978 475.302 145.759 475.958 145.978C476.395 146.196 476.614 146.852 476.395 147.508C476.177 147.945 475.739 148.163 475.521 148.163C475.302 148.163 475.084 148.163 474.865 147.945ZM540.643 146.852C540.424 146.415 540.643 145.759 541.08 145.322C541.517 145.104 542.391 145.322 542.61 145.759C542.828 146.196 542.61 146.852 542.173 147.289C541.954 147.289 541.735 147.508 541.735 147.508C541.298 147.289 540.861 147.071 540.643 146.852ZM326.265 143.793C325.828 143.356 325.828 142.7 326.265 142.263C326.702 141.826 327.358 141.826 327.795 142.263C328.232 142.7 328.232 143.356 328.013 143.793C327.795 144.011 327.576 144.23 327.139 144.23C326.702 144.011 326.484 144.011 326.265 143.793ZM460.224 138.766C459.787 138.329 459.568 137.674 460.005 137.237C460.442 136.8 461.098 136.581 461.535 137.018C461.972 137.455 462.191 138.111 461.754 138.548C461.535 138.766 461.098 138.985 460.879 138.985C460.661 138.985 460.442 138.766 460.224 138.766ZM555.066 137.237C554.629 136.8 554.847 136.144 555.284 135.707C555.721 135.27 556.377 135.488 556.814 135.926C557.251 136.363 557.033 137.018 556.596 137.455C556.377 137.674 556.158 137.674 555.94 137.674C555.721 137.674 555.284 137.674 555.066 137.237ZM338.066 131.118C337.629 130.681 337.629 130.025 338.066 129.588C338.503 129.151 339.158 129.151 339.595 129.588C340.032 130.025 340.032 130.681 339.595 131.118C339.377 131.336 339.158 131.336 338.94 131.336C338.503 131.555 338.284 131.336 338.066 131.118ZM446.238 128.277C445.801 127.84 445.582 127.184 446.019 126.747C446.457 126.31 447.112 126.092 447.549 126.529C447.986 126.966 448.205 127.621 447.768 128.058C447.549 128.277 447.112 128.496 446.894 128.496C446.675 128.496 446.457 128.495 446.238 128.277ZM567.959 125.873C567.522 125.436 567.522 124.781 567.959 124.343C568.396 123.906 569.052 123.906 569.489 124.343C569.926 124.781 569.926 125.436 569.489 125.873C569.27 126.092 569.052 126.31 568.615 126.31C568.615 126.092 568.178 126.092 567.959 125.873ZM351.178 119.973C350.74 119.536 350.959 118.88 351.396 118.443C351.833 118.006 352.489 118.225 352.926 118.662C353.144 119.099 353.144 119.754 352.707 120.191C352.489 120.41 352.27 120.41 352.052 120.41C351.833 120.41 351.396 120.191 351.178 119.973ZM432.034 118.443C431.596 118.006 431.378 117.351 431.815 116.913C432.034 116.476 432.908 116.258 433.345 116.695C433.782 116.913 434 117.788 433.563 118.225C433.345 118.662 432.908 118.662 432.689 118.662C432.471 118.662 432.252 118.662 432.034 118.443ZM579.541 112.761C579.104 112.324 578.886 111.669 579.323 111.232C579.76 110.795 580.415 110.576 580.852 111.013C581.289 111.45 581.508 112.106 581.071 112.543C580.852 112.761 580.415 112.98 580.197 112.98C579.978 112.98 579.541 112.98 579.541 112.761ZM366.037 111.013C365.819 110.358 366.037 109.921 366.693 109.483C367.349 109.265 367.786 109.483 368.223 109.92C368.441 110.576 368.223 111.013 367.786 111.45C367.567 111.45 367.567 111.45 367.349 111.45C366.693 111.669 366.256 111.45 366.037 111.013ZM416.955 110.358C416.299 110.139 416.081 109.483 416.299 108.828C416.518 108.172 417.174 107.954 417.829 108.172C418.485 108.391 418.703 109.046 418.485 109.483C418.266 109.921 417.829 110.139 417.392 110.139C417.392 110.358 417.173 110.358 416.955 110.358ZM382.427 105.55C382.209 104.894 382.646 104.457 383.301 104.239C383.957 104.239 384.394 104.457 384.613 105.113C384.613 105.768 384.394 106.205 383.738 106.424H383.52C383.083 106.424 382.646 105.987 382.427 105.55ZM400.565 105.987C399.91 105.987 399.473 105.331 399.691 104.894C399.691 104.239 400.347 103.802 400.784 104.02C401.439 104.02 401.876 104.676 401.658 105.331C401.876 105.55 401.439 105.987 400.565 105.987C400.784 105.987 400.784 105.987 400.565 105.987ZM589.375 98.557C588.938 98.1199 588.719 97.4643 589.157 97.0272C589.375 96.5902 590.249 96.3716 590.686 96.5901C591.123 97.0272 591.342 97.6828 590.905 98.1199C590.686 98.3384 590.249 98.557 590.031 98.557C589.812 98.7755 589.594 98.7755 589.375 98.557ZM598.553 83.9154C598.116 83.6969 597.898 82.8228 598.116 82.3857C598.335 81.9486 599.209 81.7302 599.646 81.9487C600.083 82.1672 600.301 83.0413 600.083 83.4783C599.864 83.9154 599.427 83.9154 599.209 83.9154C598.99 84.134 598.772 83.9154 598.553 83.9154ZM607.731 69.0554C607.294 68.8369 607.076 68.1813 607.295 67.5257C607.513 67.0886 608.387 66.8701 608.824 67.0886C609.261 67.5257 609.48 68.1813 609.261 68.6183C609.043 68.8369 608.606 69.0554 608.387 69.0554C607.95 69.2739 607.95 69.2739 607.731 69.0554ZM616.91 54.4139C616.473 53.9769 616.254 53.3213 616.691 52.8842C617.128 52.4472 617.784 52.2286 618.221 52.6657C618.658 53.1027 618.877 53.7583 618.439 54.1954C618.221 54.4139 617.784 54.6325 617.565 54.6325C617.347 54.6325 617.128 54.6324 616.91 54.4139ZM627.181 40.428C626.744 39.991 626.744 39.3353 626.962 38.8983C627.399 38.4612 628.055 38.2427 628.492 38.6798C628.929 39.1168 629.147 39.7724 628.71 40.2095C628.492 40.428 628.055 40.6465 627.836 40.6465C627.618 40.6465 627.399 40.6465 627.181 40.428ZM638.763 27.5347C638.326 27.0977 638.326 26.4421 638.763 26.005C639.2 25.568 639.855 25.568 640.292 26.005C640.73 26.4421 640.73 27.0977 640.292 27.5347C640.074 27.7533 639.855 27.7533 639.637 27.7533C639.2 27.7533 638.981 27.7533 638.763 27.5347ZM651.875 16.3897C651.437 15.9527 651.656 15.2971 652.093 14.86C652.53 14.4229 653.186 14.6415 653.623 15.0785C653.841 15.5156 653.841 16.1712 653.404 16.6082C653.186 16.8268 652.967 16.8268 652.749 16.8268C652.53 16.8268 652.093 16.8268 651.875 16.3897ZM667.172 8.0856C666.953 7.43001 667.172 6.99295 667.827 6.55589C668.483 6.33736 668.92 6.55587 669.138 7.21146C669.357 7.86705 669.138 8.30412 668.483 8.52265C668.264 8.52265 668.264 8.52265 668.046 8.52265C667.827 8.74118 667.39 8.52266 667.172 8.0856ZM718.526 5.68176C717.871 5.46323 717.652 4.80766 717.871 4.3706C718.089 3.71501 718.745 3.49647 719.182 3.715C719.837 3.93353 720.056 4.58911 719.837 5.2447C719.619 5.68176 719.182 5.9003 718.745 5.9003C718.745 5.68177 718.526 5.68176 718.526 5.68176ZM683.561 2.62235C683.343 1.96676 683.78 1.52969 684.436 1.31116C685.091 1.09263 685.528 1.52971 685.747 2.1853C685.747 2.84089 685.528 3.27793 684.873 3.49646H684.654C684.217 3.49646 683.78 3.27794 683.561 2.62235ZM700.825 1.09265C700.825 0.43706 701.262 0 701.918 0C702.574 0 703.011 0.655589 703.011 1.09265C703.011 1.74824 702.574 2.1853 701.918 2.1853C701.262 2.1853 700.825 1.74824 700.825 1.09265Z" fill="white" fill-opacity="0.3"/>
<path d="M733.605 14.86C733.386 14.86 733.386 14.86 733.168 14.86C732.949 14.86 732.949 14.6415 732.731 14.6415C732.731 14.6415 732.512 14.423 732.512 14.2045C732.512 13.9859 732.512 13.9859 732.512 13.7674C732.512 13.5489 732.731 13.1118 732.731 12.8933C732.949 12.6748 733.605 12.4562 733.823 12.6747C734.042 12.6747 734.042 12.8933 734.26 12.8933C734.479 13.1118 734.479 13.3303 734.479 13.7674C734.479 13.9859 734.479 13.9859 734.479 14.2045C734.479 14.423 734.26 14.423 734.26 14.6415C734.26 14.8601 734.042 14.86 733.605 14.86Z" fill="white" fill-opacity="0.3"/>
</svg>
