<svg width="359" height="251" viewBox="0 0 359 251" fill="none" xmlns="http://www.w3.org/2000/svg">
<path d="M0.212623 250.217C-2.19121 211.974 15.9468 172.42 46.541 149.474C77.1351 126.529 120.186 119.973 156.024 132.866C164.329 135.926 172.196 139.859 180.063 143.574C188.585 147.726 197.545 152.097 206.723 155.156C227.265 161.931 246.496 159.527 258.078 148.819C270.971 137.018 272.938 118.662 274.686 100.524C275.342 94.1864 275.997 87.6305 277.09 81.5116C284.301 41.3021 317.518 7.64854 357.727 0L358.164 2.1853C318.829 9.83384 286.487 42.6133 279.275 81.9487C278.183 88.0675 277.527 94.4049 276.871 100.742C275.123 119.099 273.156 138.111 259.608 150.349C247.37 161.494 227.265 164.116 206.068 157.123C196.671 154.064 187.711 149.693 178.97 145.322C171.322 141.607 163.454 137.674 155.15 134.614C119.748 121.94 77.5722 128.277 47.6336 151.004C17.695 173.513 -0.224434 212.411 2.17939 249.78L0.212623 250.217Z" fill="white" fill-opacity="0.3"/>
</svg>
