<svg width="663" height="238" viewBox="0 0 663 238" fill="none" xmlns="http://www.w3.org/2000/svg">
<path d="M6.40329 237.992C-10.4235 206.742 8.15148 166.751 36.1233 148.832C60.5987 133.098 93.1597 128.072 135.336 133.316C147.355 134.846 159.374 137.031 171.175 138.998C192.372 142.713 214.225 146.647 236.078 146.647C236.515 146.647 236.952 146.647 237.171 146.647C275.851 146.647 308.193 133.316 326.112 109.934C335.728 97.4773 341.191 82.1802 346.654 67.1017C353.866 47.434 361.296 26.8922 377.904 13.7804C407.406 -10.0393 450.456 0.887174 478.209 17.4954C492.195 25.7996 505.307 36.289 517.982 46.1229C532.623 57.7049 547.483 69.5055 564.092 78.4653C593.593 94.1994 636.425 99.2256 660.682 73.2206L662.211 74.7502C637.08 101.629 593.156 96.6032 562.999 80.432C546.172 71.4723 531.093 59.4532 516.452 47.8711C503.996 37.8187 490.884 27.5478 476.898 19.2437C449.8 3.07245 407.843 -7.63548 379.215 15.5287C363.263 28.4219 356.27 47.6526 348.84 67.9759C343.376 83.0544 337.695 98.57 327.861 111.245C309.504 135.283 276.069 149.05 236.078 148.832C214.225 148.613 192.154 144.898 170.956 140.965C159.156 138.998 147.137 136.813 135.117 135.283C93.3782 130.038 61.4728 135.064 37.216 150.362C10.1183 167.625 -8.0197 206.524 8.15151 236.681L6.40329 237.992Z" fill="white" fill-opacity="0.3"/>
</svg>
