<svg width="723" height="326" viewBox="0 0 723 326" fill="none" xmlns="http://www.w3.org/2000/svg">
<path d="M707.818 2.27582C707.6 2.27582 707.6 2.27582 707.381 2.27582C707.163 2.27582 707.163 2.05729 706.944 2.05729C706.944 2.05729 706.726 1.83876 706.726 1.62023C706.726 1.4017 706.726 1.4017 706.726 1.18317C706.726 0.964636 706.726 0.964635 706.726 0.746105C706.726 0.527575 706.944 0.527582 706.944 0.309052C707.163 0.090522 707.818 -0.128013 708.037 0.090517C708.255 0.090517 708.255 0.309052 708.474 0.309052C708.474 0.309052 708.692 0.527575 708.692 0.746105C708.692 0.964635 708.692 0.964636 708.692 1.18317C708.692 1.4017 708.692 1.4017 708.692 1.62023C708.692 1.83876 708.474 1.83876 708.474 2.05729C708.255 2.05729 708.037 2.27582 707.818 2.27582Z" fill="white" fill-opacity="0.3"/>
<path d="M43.706 325.481C43.0504 325.481 42.6133 325.044 42.6133 324.389C42.6133 323.733 43.0504 323.296 43.706 323.296C44.3615 323.296 44.7986 323.733 44.7986 324.389C44.7986 325.044 44.3615 325.481 43.706 325.481ZM60.0957 322.422C59.8772 321.766 60.3142 321.329 60.9698 321.111C61.6254 320.892 62.0625 321.329 62.281 321.766C62.4995 322.422 62.0625 322.859 61.6254 323.078C61.4069 323.078 61.4069 323.078 61.4069 323.078C60.7513 323.296 60.3142 323.078 60.0957 322.422ZM26.2236 322.859C25.568 322.641 25.3495 321.985 25.568 321.548C25.7865 320.892 26.4421 320.674 26.8792 320.892C27.5347 321.111 27.7533 321.766 27.5347 322.203C27.3162 322.641 26.8792 322.859 26.4421 322.859H26.2236ZM76.2669 315.648C75.8298 315.211 76.0484 314.555 76.704 314.118C77.141 313.681 77.7966 313.899 78.2337 314.336C78.4522 314.773 78.4522 315.429 77.7966 315.866C77.5781 315.866 77.3596 316.085 77.141 316.085C76.704 316.303 76.4854 316.085 76.2669 315.648ZM10.4894 314.336C10.0524 313.899 10.0524 313.244 10.2709 312.807C10.708 312.37 11.3635 312.37 11.8006 312.588C12.2377 313.025 12.2377 313.681 12.0191 314.118C11.8006 314.336 11.5821 314.555 11.145 314.555C10.9265 314.555 10.708 314.555 10.4894 314.336ZM90.0343 305.158C89.5972 304.721 89.5972 304.066 90.0343 303.628C90.4713 303.191 91.1269 303.191 91.564 303.628C92.0011 304.066 92.0011 304.721 91.564 305.158C91.3455 305.377 91.1269 305.377 90.9084 305.377C90.4714 305.377 90.2528 305.377 90.0343 305.158ZM102.053 292.265C101.616 291.828 101.398 291.172 101.835 290.735C102.272 290.298 102.928 290.08 103.365 290.517C103.802 290.954 104.02 291.609 103.583 292.046C103.365 292.265 102.928 292.483 102.709 292.483C102.49 292.483 102.053 292.483 102.053 292.265ZM112.324 278.06C111.887 277.623 111.669 276.968 112.106 276.531C112.543 276.094 113.198 275.875 113.636 276.312C114.073 276.531 114.291 277.405 113.854 277.842C113.636 278.279 113.198 278.279 112.98 278.279C112.543 278.279 112.324 278.279 112.324 278.06ZM121.503 263.2C121.066 262.982 120.847 262.326 121.066 261.671C121.284 261.234 121.94 261.015 122.595 261.234C123.032 261.452 123.251 262.108 123.032 262.763C122.814 263.2 122.377 263.2 122.158 263.2C121.94 263.419 121.721 263.419 121.503 263.2ZM130.681 248.122C130.244 247.903 130.025 247.029 130.244 246.592C130.462 246.155 131.336 245.937 131.773 246.155C132.211 246.374 132.429 247.248 132.211 247.685C131.992 247.903 131.555 248.122 131.336 248.122C130.899 248.34 130.681 248.34 130.681 248.122ZM360.356 241.347C359.7 241.347 359.263 240.91 359.263 240.255C359.263 239.599 359.7 239.162 360.356 239.162C361.011 239.162 361.448 239.599 361.448 240.255C361.448 240.692 361.011 241.347 360.356 241.347ZM342.655 240.255C341.999 240.255 341.562 239.599 341.781 238.944C341.781 238.288 342.436 237.851 343.092 238.07C343.747 238.07 344.185 238.725 343.966 239.381C343.966 239.818 343.31 240.255 342.655 240.255C342.873 240.255 342.873 240.255 342.655 240.255ZM376.527 237.632C376.308 236.977 376.745 236.54 377.182 236.321C377.838 236.103 378.275 236.54 378.494 236.977C378.712 237.632 378.275 238.07 377.838 238.288H377.62C377.183 238.288 376.745 238.07 376.527 237.632ZM325.609 236.103C324.954 235.884 324.735 235.229 324.954 234.792C325.172 234.136 325.609 233.917 326.265 234.136C326.921 234.355 327.139 235.01 326.921 235.447C326.702 235.884 326.265 236.321 325.828 236.321L325.609 236.103ZM140.078 233.48C139.641 233.043 139.422 232.388 139.859 231.951C140.296 231.514 140.952 231.295 141.389 231.732C141.826 232.169 142.044 232.825 141.607 233.262C141.389 233.48 140.952 233.699 140.733 233.699C140.515 233.699 140.296 233.699 140.078 233.48ZM309.001 230.202C308.346 229.984 308.127 229.328 308.346 228.673C308.564 228.017 309.22 227.799 309.875 228.017C310.531 228.236 310.749 228.891 310.531 229.547C310.312 229.984 309.875 230.202 309.438 230.202C309.22 230.202 309.001 230.202 309.001 230.202ZM392.043 229.765C391.605 229.328 391.824 228.673 392.261 228.236C392.698 227.799 393.354 228.017 393.791 228.454C394.228 228.891 394.009 229.547 393.572 229.984C393.354 230.202 393.135 230.202 392.917 230.202C392.698 230.202 392.261 229.984 392.043 229.765ZM293.048 222.554C292.611 222.335 292.393 221.68 292.611 221.024C292.83 220.369 293.486 220.369 294.141 220.587C294.797 220.806 294.797 221.461 294.578 222.117C294.36 222.554 293.923 222.772 293.704 222.772C293.486 222.554 293.267 222.554 293.048 222.554ZM151.004 219.713C150.567 219.276 150.567 218.62 150.786 218.183C151.223 217.746 151.878 217.746 152.315 217.965C152.752 218.402 152.752 219.057 152.315 219.494C152.097 219.713 151.878 219.932 151.441 219.932C151.441 219.932 151.223 219.932 151.004 219.713ZM404.28 217.091C403.843 216.654 403.625 215.998 404.062 215.561C404.28 215.124 405.154 214.905 405.591 215.342C406.028 215.561 406.247 216.435 405.81 216.872C405.591 217.309 405.154 217.309 404.936 217.309C404.499 217.309 404.28 217.309 404.28 217.091ZM277.751 214.031C277.314 213.813 277.096 213.157 277.314 212.502C277.533 211.846 278.188 211.846 278.844 212.064C279.5 212.283 279.5 212.939 279.281 213.594C279.063 214.031 278.626 214.25 278.407 214.25C277.97 214.25 277.751 214.25 277.751 214.031ZM163.242 207.257C162.805 206.82 163.023 206.164 163.46 205.727C163.897 205.29 164.553 205.509 164.99 205.946C165.427 206.383 165.209 207.038 164.771 207.475C164.553 207.694 164.334 207.694 164.116 207.694C163.897 207.694 163.46 207.694 163.242 207.257ZM262.017 206.164C261.58 205.946 261.143 205.29 261.58 204.634C261.799 203.979 262.454 203.76 263.11 204.197C263.547 204.416 263.984 205.072 263.547 205.727C263.328 206.164 262.891 206.383 262.454 206.383C262.454 206.164 262.236 206.164 262.017 206.164ZM411.71 201.357C411.055 201.138 410.836 200.482 411.055 200.045C411.273 199.39 411.929 199.171 412.366 199.39C413.021 199.608 413.24 200.264 413.021 200.701C412.803 201.138 412.366 201.357 411.929 201.357C411.929 201.575 411.929 201.357 411.71 201.357ZM246.283 198.953C245.628 198.734 245.409 198.079 245.628 197.423C245.846 196.767 246.502 196.549 246.939 196.767C247.594 196.986 247.813 197.642 247.594 198.297C247.376 198.734 246.939 198.953 246.502 198.953H246.283ZM177.883 197.423C177.665 196.986 177.883 196.33 178.32 195.893C178.976 195.675 179.632 195.893 179.85 196.33C180.069 196.986 179.85 197.423 179.413 197.86C179.194 197.86 179.194 198.079 178.976 198.079C178.32 198.079 177.883 197.86 177.883 197.423ZM229.675 193.489C229.019 193.271 228.801 192.834 228.801 192.178C229.019 191.523 229.456 191.304 230.112 191.304C230.768 191.523 230.986 191.96 230.986 192.615C230.768 193.052 230.33 193.489 229.893 193.489H229.675ZM194.273 191.523C194.054 190.867 194.492 190.43 195.147 190.212C195.803 189.993 196.24 190.43 196.458 191.086C196.458 191.741 196.24 192.178 195.584 192.397H195.366C194.71 192.397 194.273 191.96 194.273 191.523ZM212.63 190.867C211.974 190.867 211.537 190.212 211.537 189.774C211.537 189.119 212.192 188.682 212.63 188.682C213.285 188.682 213.722 189.119 213.722 189.774C213.722 190.43 213.285 190.867 212.63 190.867ZM415.644 184.311C414.988 184.311 414.551 183.656 414.77 183C414.77 182.344 415.425 181.907 416.081 182.126C416.736 182.126 417.173 182.781 416.955 183.437C416.955 184.093 416.299 184.311 415.644 184.311C415.862 184.311 415.644 184.311 415.644 184.311ZM417.829 167.047C417.173 167.047 416.736 166.392 416.955 165.955C416.955 165.299 417.611 164.862 418.048 164.862C418.703 164.862 419.14 165.518 419.14 165.955C418.922 166.61 418.485 167.047 417.829 167.047ZM419.359 149.565C418.703 149.565 418.266 148.909 418.266 148.472C418.266 147.817 418.922 147.38 419.577 147.598C420.233 147.598 420.67 148.254 420.451 148.691C420.451 149.128 420.014 149.565 419.359 149.565C419.577 149.565 419.359 149.565 419.359 149.565ZM421.981 132.083C421.326 131.864 420.888 131.427 421.107 130.771C421.326 130.116 421.763 129.897 422.418 129.897C423.074 130.116 423.511 130.553 423.292 131.208C423.074 131.864 422.637 132.301 421.981 132.083C421.981 132.301 421.981 132.083 421.981 132.083ZM426.789 115.256C426.133 115.037 425.915 114.382 426.133 113.726C426.352 113.07 427.007 112.852 427.444 113.07C428.1 113.289 428.318 113.945 428.1 114.6C427.881 115.037 427.444 115.256 427.007 115.256C427.007 115.474 427.007 115.474 426.789 115.256ZM435.311 100.177C434.874 99.7401 434.656 99.0846 435.093 98.6475C435.53 98.2104 436.186 97.9919 436.623 98.429C437.06 98.866 437.278 99.5216 436.841 99.9587C436.623 100.177 436.186 100.396 435.967 100.396C435.749 100.396 435.53 100.396 435.311 100.177ZM635.266 98.429C634.611 98.429 634.174 97.7734 634.174 97.3363C634.174 96.6807 634.829 96.2437 635.266 96.2437C635.922 96.2437 636.359 96.8993 636.359 97.3363C636.359 97.9919 635.922 98.429 635.266 98.429ZM651.656 97.1178C651.656 96.4622 652.093 96.0251 652.749 96.0251C653.404 96.0251 653.841 96.4622 653.841 97.1178C653.841 97.7734 653.404 98.2104 652.749 98.2104C652.312 98.2104 651.656 97.7734 651.656 97.1178ZM617.784 96.4622C617.128 96.4622 616.691 95.8066 616.91 95.151C616.91 94.4954 617.565 94.0584 618.221 94.2769C618.876 94.2769 619.314 94.9325 619.095 95.5881C618.876 96.0251 618.439 96.4622 617.784 96.4622ZM669.138 94.714C668.92 94.0584 669.357 93.6213 670.012 93.4028C670.668 93.1842 671.105 93.6213 671.324 94.2769C671.542 94.9325 671.105 95.3695 670.45 95.5881H670.231C669.575 95.5881 669.138 95.151 669.138 94.714ZM600.52 92.9657C599.864 92.7472 599.646 92.3101 599.646 91.6545C599.864 90.9989 600.301 90.7804 600.957 90.7804C601.613 90.999 601.831 91.436 601.831 92.0916C601.613 92.5287 601.176 92.9657 600.739 92.9657H600.52ZM685.528 89.0322C685.31 88.3766 685.528 87.9395 685.965 87.5025C686.402 87.284 687.058 87.5025 687.495 87.9395C687.713 88.5951 687.495 89.0322 687.058 89.4692C686.839 89.4692 686.839 89.4692 686.621 89.4692C686.184 89.4692 685.747 89.2507 685.528 89.0322ZM583.475 88.3766C582.819 88.1581 582.6 87.5025 582.6 87.0654C582.819 86.4098 583.475 86.1913 583.912 86.4098C584.567 86.6284 584.786 87.0654 584.567 87.721C584.349 88.1581 583.912 88.5951 583.475 88.5951C583.693 88.3766 583.475 88.3766 583.475 88.3766ZM447.768 87.9395C447.331 87.5025 447.549 86.8469 447.986 86.4098C448.423 85.9728 449.079 86.1913 449.516 86.6284C449.953 87.0654 449.734 87.721 449.297 88.1581C449.079 88.3766 448.86 88.3766 448.642 88.3766C448.423 88.3766 447.986 88.1581 447.768 87.9395ZM566.648 83.5689C565.992 83.3504 565.774 82.9134 565.992 82.2578C566.211 81.6022 566.866 81.3836 567.303 81.6022C567.959 81.8207 568.178 82.2578 567.959 82.9133C567.741 83.3504 567.303 83.7875 566.866 83.7875C566.866 83.5689 566.648 83.5689 566.648 83.5689ZM700.388 79.6354C699.951 79.1983 699.951 78.5428 700.607 78.1057C701.044 77.6686 701.699 77.6686 702.136 78.1057C702.573 78.5428 702.573 79.1983 702.136 79.6354C701.918 79.8539 701.699 79.8539 701.481 79.8539C700.825 80.0725 700.607 79.8539 700.388 79.6354ZM463.065 79.1983C462.846 78.5428 463.065 78.1057 463.72 77.6686C464.376 77.4501 464.813 77.6686 465.25 78.3242C465.469 78.9798 465.25 79.4169 464.594 79.6354C464.376 79.6354 464.376 79.6354 464.157 79.6354C463.502 79.8539 463.065 79.6354 463.065 79.1983ZM549.821 78.9798C549.165 78.7613 548.947 78.3242 548.947 77.6686C549.165 77.0131 549.603 76.7945 550.258 76.7945C550.914 77.013 551.132 77.4501 551.132 78.1057C550.914 78.5428 550.477 78.9798 550.04 78.9798C549.821 78.9798 549.821 78.9798 549.821 78.9798ZM532.776 75.2648C532.12 75.2648 531.683 74.6092 531.902 73.9536C531.902 73.298 532.557 73.0795 533.213 73.0795C533.868 73.0795 534.306 73.7351 534.087 74.3907C533.868 74.8278 533.431 75.2648 532.776 75.2648ZM479.673 73.9536C479.454 73.298 479.892 72.861 480.547 72.6424C481.203 72.4239 481.64 72.861 481.858 73.5166C482.077 74.1722 481.64 74.6092 480.984 74.8277H480.766C480.11 74.6092 479.673 74.3907 479.673 73.9536ZM515.512 72.6424C514.856 72.6424 514.419 71.9869 514.419 71.5498C514.419 70.8942 515.075 70.4571 515.512 70.6757C516.167 70.6757 516.605 71.3313 516.605 71.7683C516.605 72.2054 516.167 72.6424 515.512 72.6424ZM496.937 71.3313C496.937 70.6757 497.374 70.2386 498.03 70.2386C498.685 70.2386 499.122 70.6757 499.122 71.3313C499.122 71.9869 498.685 72.4239 498.03 72.4239C497.592 72.4239 496.937 71.9869 496.937 71.3313ZM711.752 66.5236C711.315 66.3051 711.096 65.431 711.315 64.9939C711.533 64.5568 712.189 64.3383 712.844 64.5569C713.281 64.7754 713.5 65.6495 713.281 66.0866C713.063 66.3051 712.626 66.5236 712.407 66.5236C712.189 66.5236 711.97 66.5236 711.752 66.5236ZM718.963 50.5709C718.308 50.3524 718.089 49.9154 718.308 49.2598C718.526 48.6042 719.182 48.3856 719.619 48.6042C720.274 48.8227 720.493 49.2598 720.274 49.9153C720.056 50.3524 719.619 50.7895 719.182 50.7895C719.182 50.5709 719.182 50.5709 718.963 50.5709ZM720.493 32.2144C720.493 31.5588 720.93 31.1218 721.585 31.1218C722.241 31.1218 722.678 31.5588 722.678 32.2144C722.678 32.87 722.241 33.3071 721.585 33.3071C720.93 33.3071 720.493 32.87 720.493 32.2144ZM716.996 15.6062C716.778 14.9506 716.996 14.5135 717.652 14.0765C718.308 13.8579 718.745 14.0765 719.182 14.732C719.4 15.3876 719.182 15.8247 718.526 16.2618C718.308 16.2618 718.308 16.2618 718.089 16.2618C717.652 16.2618 717.215 16.0432 716.996 15.6062Z" fill="white" fill-opacity="0.3"/>
<path d="M1.09265 300.35C0.874119 300.35 0.43706 300.132 0.218531 300.132C0.218531 299.913 0 299.913 0 299.695C0 299.476 0 299.476 0 299.258C0 299.039 0 299.039 0 298.821C0 298.602 0.218531 298.602 0.218531 298.384C0.218531 298.165 0.437062 298.165 0.655592 298.165C0.874122 298.165 1.31118 298.165 1.52971 298.165C1.74824 298.165 1.74824 298.384 1.96677 298.384C1.96677 298.384 2.1853 298.602 2.1853 298.821C2.1853 299.039 2.1853 299.039 2.1853 299.258C2.1853 299.476 2.1853 299.476 2.1853 299.695C2.1853 299.913 1.96677 299.913 1.96677 300.132C1.74824 300.132 1.74824 300.35 1.52971 300.35C1.31118 300.132 1.09265 300.35 1.09265 300.35Z" fill="white" fill-opacity="0.3"/>
</svg>
