<svg width="349" height="3" viewBox="0 0 349 3" fill="none" xmlns="http://www.w3.org/2000/svg">
<path d="M1.09265 2.27581C0.874119 2.27581 0.437059 2.27585 0.437059 1.83879C0.218529 1.62026 0 1.40169 0 1.18316C0 0.964635 0.218529 0.527588 0.437059 0.309058C0.437059 0.309058 0.655589 0.0905153 0.874119 0.0905153C1.31118 -0.128015 1.74824 0.0905286 2.1853 0.309058C2.1853 0.527588 2.40383 0.527615 2.40383 0.746145C2.40383 0.964675 2.40383 0.964635 2.40383 1.18316C2.40383 1.40169 2.40383 1.83879 2.1853 1.83879C1.52971 2.27585 1.31118 2.27581 1.09265 2.27581Z" fill="white" fill-opacity="0.3"/>
<path d="M328.669 1.18316C328.669 0.527575 329.106 0.0905151 329.762 0.0905151C330.417 0.0905151 330.854 0.527575 330.854 1.18316C330.854 1.83875 330.417 2.27581 329.762 2.27581C329.106 2.27581 328.669 1.83875 328.669 1.18316ZM311.405 1.18316C311.405 0.527575 311.842 0.0905151 312.498 0.0905151C313.153 0.0905151 313.59 0.527575 313.59 1.18316C313.59 1.83875 313.153 2.27581 312.498 2.27581C311.842 2.27581 311.405 1.83875 311.405 1.18316ZM293.923 1.18316C293.923 0.527575 294.36 0.0905151 295.015 0.0905151C295.671 0.0905151 296.108 0.527575 296.108 1.18316C296.108 1.83875 295.671 2.27581 295.015 2.27581C294.578 2.27581 293.923 1.83875 293.923 1.18316ZM276.659 1.18316C276.659 0.527575 277.096 0.0905151 277.751 0.0905151C278.407 0.0905151 278.844 0.527575 278.844 1.18316C278.844 1.83875 278.407 2.27581 277.751 2.27581C277.314 2.27581 276.659 1.83875 276.659 1.18316ZM259.395 1.18316C259.395 0.527575 259.832 0.0905151 260.488 0.0905151C261.143 0.0905151 261.58 0.527575 261.58 1.18316C261.58 1.83875 261.143 2.27581 260.488 2.27581C259.832 2.27581 259.395 1.83875 259.395 1.18316ZM242.131 1.18316C242.131 0.527575 242.568 0.0905151 243.224 0.0905151C243.879 0.0905151 244.316 0.527575 244.316 1.18316C244.316 1.83875 243.879 2.27581 243.224 2.27581C242.568 2.27581 242.131 1.83875 242.131 1.18316ZM224.867 1.18316C224.867 0.527575 225.304 0.0905151 225.96 0.0905151C226.615 0.0905151 227.053 0.527575 227.053 1.18316C227.053 1.83875 226.615 2.27581 225.96 2.27581C225.304 2.27581 224.867 1.83875 224.867 1.18316ZM207.603 1.18316C207.603 0.527575 208.04 0.0905151 208.696 0.0905151C209.352 0.0905151 209.789 0.527575 209.789 1.18316C209.789 1.83875 209.352 2.27581 208.696 2.27581C208.04 2.27581 207.603 1.83875 207.603 1.18316ZM190.121 1.18316C190.121 0.527575 190.558 0.0905151 191.214 0.0905151C191.869 0.0905151 192.306 0.527575 192.306 1.18316C192.306 1.83875 191.869 2.27581 191.214 2.27581C190.777 2.27581 190.121 1.83875 190.121 1.18316ZM172.857 1.18316C172.857 0.527575 173.294 0.0905151 173.95 0.0905151C174.605 0.0905151 175.042 0.527575 175.042 1.18316C175.042 1.83875 174.605 2.27581 173.95 2.27581C173.513 2.27581 172.857 1.83875 172.857 1.18316ZM155.593 1.18316C155.593 0.527575 156.03 0.0905151 156.686 0.0905151C157.341 0.0905151 157.779 0.527575 157.779 1.18316C157.779 1.83875 157.341 2.27581 156.686 2.27581C156.03 2.27581 155.593 1.83875 155.593 1.18316ZM138.329 1.18316C138.329 0.527575 138.766 0.0905151 139.422 0.0905151C140.078 0.0905151 140.515 0.527575 140.515 1.18316C140.515 1.83875 140.078 2.27581 139.422 2.27581C138.766 2.27581 138.329 1.83875 138.329 1.18316ZM121.066 1.18316C121.066 0.527575 121.503 0.0905151 122.158 0.0905151C122.814 0.0905151 123.251 0.527575 123.251 1.18316C123.251 1.83875 122.814 2.27581 122.158 2.27581C121.503 2.27581 121.066 1.83875 121.066 1.18316ZM103.802 1.18316C103.802 0.527575 104.239 0.0905151 104.894 0.0905151C105.55 0.0905151 105.987 0.527575 105.987 1.18316C105.987 1.83875 105.55 2.27581 104.894 2.27581C104.239 2.27581 103.802 1.83875 103.802 1.18316ZM86.5378 1.18316C86.5378 0.527575 86.9749 0.0905151 87.6305 0.0905151C88.2861 0.0905151 88.7231 0.527575 88.7231 1.18316C88.7231 1.83875 88.2861 2.27581 87.6305 2.27581C86.9749 2.27581 86.5378 1.83875 86.5378 1.18316ZM69.0555 1.18316C69.0555 0.527575 69.4925 0.0905151 70.1481 0.0905151C70.8037 0.0905151 71.2408 0.527575 71.2408 1.18316C71.2408 1.83875 70.8037 2.27581 70.1481 2.27581C69.711 2.27581 69.0555 1.83875 69.0555 1.18316ZM51.7916 1.18316C51.7916 0.527575 52.2287 0.0905151 52.8842 0.0905151C53.5398 0.0905151 53.9769 0.527575 53.9769 1.18316C53.9769 1.83875 53.5398 2.27581 52.8842 2.27581C52.2287 2.27581 51.7916 1.83875 51.7916 1.18316ZM34.5277 1.18316C34.5277 0.527575 34.9648 0.0905151 35.6204 0.0905151C36.276 0.0905151 36.713 0.527575 36.713 1.18316C36.713 1.83875 36.276 2.27581 35.6204 2.27581C34.9648 2.27581 34.5277 1.83875 34.5277 1.18316ZM17.2639 1.18316C17.2639 0.527575 17.7009 0.0905151 18.3565 0.0905151C19.0121 0.0905151 19.4492 0.527575 19.4492 1.18316C19.4492 1.83875 19.0121 2.27581 18.3565 2.27581C17.7009 2.27581 17.2639 1.83875 17.2639 1.18316Z" fill="white" fill-opacity="0.3"/>
<path d="M347.025 2.2759C346.807 2.2759 346.807 2.2759 346.588 2.2759C346.37 2.2759 346.37 2.05735 346.151 2.05735C345.933 1.83882 345.933 1.62032 345.933 1.40179C345.933 1.18326 346.151 0.746215 346.151 0.527685C346.588 0.0906252 347.244 0.0906252 347.681 0.527685C347.9 0.746215 348.118 0.964731 348.118 1.40179C348.118 1.62032 347.9 2.05735 347.681 2.05735C347.462 2.27588 347.244 2.2759 347.025 2.2759Z" fill="white" fill-opacity="0.3"/>
</svg>
